# xmcd
#
# Track frame offsets: 
#        150
#        20150
#        30732
#        44259
#        59192
#        72115
#        89266
#        103953
#        120265
#        133926
#        149030
#        164151
#        176304
#        189843
#        207418
#        221406
#        237033
#        248197
#        262506
#        276355
#
# Disc length: 3868 seconds
#
# Revision: 0
# Processed by: cddbd v1.5.2PL0 Copyright (c) Steve Scherf et al.
# Submitted via: ExactAudioCopy v1.3
#
DISCID=2f0f1a14
DTITLE=Various Artist - 101 Country And Irish
DYEAR=1900
DGENRE=Celtic
TTITLE0=Jimmy And Claudia Buckley - I Told You So
TTITLE1=Mick Flavin - Sams Place
TTITLE2=Three Amigos - Flowers On The Wall
TTITLE3=Isla Grant - Will You Walk With Me
TTITLE4=Robert Mizzel - Louisana Saturday Night
TTITLE5=Johnny McAvoy - When You Say Nothing At All
TTITLE6=Philomena Begley - Blanket On The Ground
TTITLE7=Paul Kelly - Lost love
TTITLE8=Brendan Quinn - Behind Closed Doors
TTITLE9=louise Morrissey - Mama He's Crazy
TTITLE10=Hugo Duncan - The Special Years
TTITLE11=The Davitt Country - Marlena
TTITLE12=Susan mcCann - When The Sun Says Goodbye
TTITLE13=Tr Dallas - It's hard To Be Humble
TTITLE14=Frankie McBride - Five Little fingers
TTITLE15=Curtis Mcgee - Till a Tear Becomes A Rose
TTITLE16=Roly daniels - Hello Darlin
TTITLE17=James kilbane - Every Little Thing
TTITLE18=The Cotton Mill Boys - Judy
TTITLE19=Patrick Feeny - Mrs Jones
EXTD=
EXTT0=
EXTT1=
EXTT2=
EXTT3=
EXTT4=
EXTT5=
EXTT6=
EXTT7=
EXTT8=
EXTT9=
EXTT10=
EXTT11=
EXTT12=
EXTT13=
EXTT14=
EXTT15=
EXTT16=
EXTT17=
EXTT18=
EXTT19=
PLAYORDER=
